# Blender 5.1.1
# www.blender.org
mtllib Lever.mtl
o Lever_Right
v 0.661130 0.023022 0.607130
v 0.661130 0.280636 -0.607130
v 0.661130 0.023022 -0.607130
v 0.645314 -0.015162 -0.607130
v 0.645314 -0.015162 0.607130
v 0.638307 -0.008155 0.638307
v 0.661130 0.280636 0.607130
v 0.645314 0.318820 0.607130
v 0.638307 0.311813 -0.638307
v 0.645314 0.280636 -0.645314
v 0.645314 0.023022 -0.645314
v 0.638307 -0.008155 -0.638307
v 0.638307 0.311813 0.638307
v -0.467553 0.547682 0.413553
v -0.467553 0.312262 0.413553
v -0.467553 0.493682 0.276331
v -0.451737 0.547682 0.451737
v -0.451737 0.312262 0.451737
v -0.467553 0.312262 0.222331
v -0.467553 0.312262 -0.222331
v -0.467553 0.493682 -0.276331
v -0.467553 0.805359 0.276331
v -0.661130 0.280636 -0.607130
v -0.645314 0.318820 0.607130
v -0.661130 0.280636 0.607130
v -0.645314 0.280636 -0.645314
v -0.638307 0.311813 -0.638307
v -0.661130 0.023022 0.607130
v -0.645314 0.023022 0.645314
v -0.638307 0.311813 0.638307
v -0.638307 -0.008155 0.638307
v -0.645314 -0.015162 0.607130
v -0.661130 0.023022 -0.607130
v -0.645314 -0.015162 -0.607130
v -0.638307 -0.008155 -0.638307
v -0.645314 0.023022 -0.645314
v 0.607130 0.023022 0.661130
v 0.645314 0.023022 0.645314
v 0.638307 -0.008155 0.638307
v -0.607130 0.023022 0.661130
v -0.607130 0.280636 0.661130
v 0.607130 0.280636 0.661130
v 0.645314 0.280636 0.645314
v -0.638307 -0.008155 0.638307
v -0.645314 0.023022 0.645314
v -0.645314 0.280636 0.645314
v -0.638307 0.311813 0.638307
v -0.607130 0.318820 0.645314
v 0.607130 0.318820 0.645314
v 0.638307 0.311813 0.638307
v 0.607130 0.334636 0.607130
v 0.645314 0.318820 0.607130
v 0.638307 0.311813 0.638307
v 0.607130 0.334636 -0.607130
v 0.645314 0.318820 -0.607130
v -0.607130 0.334636 0.607130
v -0.607130 0.334636 -0.607130
v -0.638307 0.311813 0.638307
v -0.645314 0.318820 0.607130
v 0.607130 0.318820 -0.645314
v 0.638307 0.311813 -0.638307
v -0.607130 0.318820 -0.645314
v -0.645314 0.318820 -0.607130
v -0.638307 0.311813 -0.638307
v 0.607130 -0.030978 0.607130
v 0.607130 -0.030978 -0.607130
v -0.607130 -0.030978 0.607130
v 0.638307 -0.008155 0.638307
v 0.645314 -0.015162 0.607130
v 0.638307 -0.008155 -0.638307
v 0.607130 -0.015162 -0.645314
v -0.607130 -0.030978 -0.607130
v -0.645314 -0.015162 0.607130
v -0.638307 -0.008155 0.638307
v -0.645314 -0.015162 -0.607130
v -0.607130 -0.015162 -0.645314
v -0.638307 -0.008155 -0.638307
v 0.467553 0.312262 0.222331
v 0.467553 0.493682 -0.276331
v 0.467553 0.312262 -0.222331
v 0.467553 0.493682 0.276331
v 0.467553 0.312262 -0.413553
v 0.451737 0.531866 0.222331
v 0.451737 0.531866 -0.222331
v 0.467553 0.312262 0.413553
v 0.467553 0.547682 0.413553
v 0.413553 0.547682 -0.467553
v -0.413553 0.547682 -0.467553
v -0.413553 0.312262 -0.467553
v 0.451737 0.805359 -0.451736
v 0.413553 0.805359 -0.467553
v 0.413553 0.312262 -0.467553
v 0.451737 0.312262 -0.451737
v -0.413553 0.805359 -0.467553
v -0.451737 0.805359 -0.451736
v -0.451737 0.547682 -0.451736
v -0.451737 0.312262 -0.451736
v 0.467553 0.547682 -0.413553
v 0.451737 0.547682 -0.451736
v 0.451737 0.312262 -0.451737
v 0.467553 0.805359 -0.276331
v 0.467553 0.805359 -0.413553
v 0.451737 0.805359 -0.451736
v 0.451737 0.805359 0.451737
v 0.467553 0.805359 0.413553
v 0.467553 0.805359 0.276331
v -0.467553 0.312262 -0.413553
v -0.451737 0.531866 0.222331
v -0.467553 0.547682 -0.413553
v -0.451737 0.312262 -0.451736
v -0.451737 0.805359 -0.451736
v -0.467553 0.805359 -0.413553
v -0.467553 0.805359 -0.276331
v -0.451737 0.547682 -0.451736
v 0.413553 0.312262 0.467553
v -0.413553 0.312262 0.467553
v -0.413553 0.547682 0.467553
v 0.413553 0.547682 0.467553
v 0.451737 0.547682 0.451737
v -0.451737 0.805359 0.451737
v -0.413553 0.805359 0.467553
v -0.451737 0.312262 0.451737
v -0.451737 0.547682 0.451737
v 0.413553 0.805359 0.467553
v 0.451737 0.805359 0.451737
v 0.413553 0.805359 0.222331
v 0.451737 0.805359 0.238147
v 0.444730 0.836536 0.245154
v -0.413553 0.805359 0.222331
v -0.413553 0.601682 0.222331
v 0.413553 0.601682 0.222331
v -0.444730 0.836536 0.245154
v -0.451737 0.805359 0.238147
v -0.413553 0.563498 0.206515
v 0.413553 0.563498 0.206515
v 0.444730 0.836536 -0.444730
v -0.413553 0.843543 -0.451736
v -0.444730 0.836536 -0.444730
v -0.413553 0.859359 -0.413553
v 0.413553 0.859359 -0.413553
v -0.413553 0.859359 -0.276331
v -0.444730 0.836536 -0.444730
v -0.413553 0.843543 -0.451736
v 0.413553 0.843543 -0.451736
v 0.444730 0.836536 -0.444730
v -0.444730 0.836536 -0.245154
v -0.451737 0.843543 -0.276331
v -0.451737 0.843543 -0.413553
v 0.413553 0.859359 -0.276331
v 0.451737 0.843543 -0.276331
v 0.444730 0.836536 -0.245154
v 0.451737 0.843543 -0.413553
v 0.451737 0.547682 -0.238147
v 0.444730 0.836536 -0.245154
v 0.451737 0.843543 -0.276331
v 0.451737 0.843543 -0.413553
v 0.444730 0.836536 -0.444730
v 0.413553 0.601682 -0.222331
v 0.413553 0.805359 -0.222331
v 0.451737 0.805359 -0.238147
v -0.413553 0.601682 -0.222331
v -0.413553 0.805359 -0.222331
v -0.451737 0.805359 -0.238147
v -0.444730 0.836536 -0.245154
v -0.413553 0.843543 -0.238147
v 0.413553 0.843543 -0.238147
v 0.444730 0.836536 -0.245154
v -0.413553 0.859359 0.276331
v -0.451737 0.843543 0.413553
v -0.451737 0.843543 0.276331
v -0.444730 0.836536 0.245154
v -0.413553 0.843543 0.238147
v 0.413553 0.859359 0.276331
v -0.413553 0.859359 0.413553
v 0.451737 0.843543 0.413553
v 0.413553 0.859359 0.413553
v 0.413553 0.843543 0.238147
v 0.444730 0.836536 0.245154
v -0.444730 0.836536 0.444730
v 0.444730 0.836536 0.444730
v 0.905994 0.803930 -0.086283
v -0.022669 0.394795 -0.086284
v 0.905994 0.803930 0.086284
v -0.029045 0.409269 -0.124467
v -0.060401 0.403111 -0.117461
v 0.899617 0.818404 -0.124467
v -0.022669 0.394795 0.086284
v -0.063988 0.393874 -0.086284
v 0.899617 0.818404 0.124467
v -0.060401 0.403111 0.117460
v -0.029046 0.409269 0.124467
v -0.413553 0.547682 -0.168331
v 0.413553 0.547682 0.168331
v -0.413553 0.547682 0.168331
v 0.413553 0.547682 -0.168331
v 0.451737 0.531866 0.222331
v -0.413553 0.563498 -0.206514
v 0.413553 0.563498 -0.206514
v -0.451737 0.547682 -0.238147
v -0.451737 0.843543 -0.276331
v -0.444730 0.836536 -0.245154
v -0.451737 0.843543 -0.413553
v -0.444730 0.836536 -0.444730
v -0.451737 0.805359 0.238147
v -0.444730 0.836536 0.245154
v -0.451737 0.843543 0.413553
v -0.467553 0.805359 0.413553
v -0.451737 0.547682 0.238147
v -0.444730 0.836536 0.444730
v -0.444730 0.836536 0.444730
v -0.413553 0.843543 0.451737
v 0.413553 0.843543 0.451737
v 0.444730 0.836536 0.444730
v 0.444730 0.836536 0.245154
v 0.451737 0.805359 0.238147
v 0.451737 0.843543 0.413553
v 0.451737 0.547682 0.238147
v 0.444730 0.836536 0.444730
v -0.044440 0.444212 -0.140284
v 0.899617 0.818404 -0.124467
v 0.884223 0.853347 -0.140283
v -0.120327 0.616461 -0.140284
v -0.060401 0.403111 -0.117461
v -0.029045 0.409269 -0.124467
v 0.808336 1.025597 -0.140283
v 0.792941 1.060540 -0.124467
v -0.135722 0.651404 -0.124467
v 1.284102 0.935472 0.116654
v 0.875751 0.755567 -0.116654
v 0.875751 0.755567 0.116654
v 1.303431 0.968927 0.147831
v 1.312668 0.965340 0.116654
v 1.284102 0.935472 -0.116654
v 1.277726 0.949946 -0.154838
v 0.869374 0.770041 -0.154838
v 0.838019 0.763883 -0.147831
v 1.277725 0.949945 0.154838
v 0.838018 0.763883 0.147831
v 0.869374 0.770041 0.154838
v 0.834431 0.754646 -0.116654
v 0.834431 0.754646 0.116654
v 1.303432 0.968928 -0.147831
v 1.312669 0.965340 -0.116654
v 0.884222 0.853347 0.140284
v -0.120327 0.616461 0.140284
v 0.808335 1.025596 0.140284
v -0.029046 0.409269 0.124467
v -0.044440 0.444212 0.140284
v -0.079383 0.428817 0.124467
v -0.155270 0.601067 0.124467
v -0.161427 0.632422 0.117461
v -0.135722 0.651404 0.124467
v -0.060401 0.403111 0.117460
v -0.169744 0.594690 0.086284
v -0.093857 0.422440 0.086284
v -0.093857 0.422441 -0.086284
v -0.169744 0.594690 -0.086284
v -0.079383 0.428817 0.124467
v -0.161427 0.632422 0.117461
v -0.155270 0.601067 0.124467
v -0.060401 0.403111 0.117460
v -0.063988 0.393874 0.086284
v -0.060401 0.403111 -0.117461
v -0.079383 0.428817 -0.124467
v -0.170665 0.636010 0.086284
v -0.155270 0.601067 -0.124467
v -0.161427 0.632423 -0.117460
v 0.853980 0.804984 -0.170654
v 0.838019 0.763883 -0.147831
v 0.869374 0.770041 -0.154838
v 1.277726 0.949946 -0.154838
v 1.262331 0.984889 -0.170654
v 0.752237 1.035921 -0.170654
v 1.303432 0.968928 -0.147831
v 1.297274 1.000283 -0.154838
v 1.145194 1.250769 -0.154837
v 0.736843 1.070864 -0.154837
v 1.160589 1.215826 -0.170654
v 1.195531 1.231220 -0.154837
v 1.176550 1.256926 -0.147831
v 1.262331 0.984888 0.170654
v 0.869374 0.770041 0.154838
v 0.853979 0.804983 0.170654
v 0.752237 1.035920 0.170654
v 1.160588 1.215825 0.170654
v 1.303431 0.968927 0.147831
v 1.277725 0.949945 0.154838
v 0.717294 1.020526 0.154838
v 0.711136 1.051882 0.147831
v 1.145193 1.250768 0.154838
v 1.176549 1.256926 0.147831
v 0.838018 0.763883 0.147831
v 0.819036 0.789589 0.154838
v 0.702820 1.014149 0.116654
v 0.819036 0.789589 0.154838
v 0.804563 0.783212 0.116654
v 0.804563 0.783213 -0.116654
v 0.702821 1.014150 -0.116654
v 0.711136 1.051882 0.147831
v 0.717294 1.020526 0.154838
v 0.838019 0.763883 -0.147831
v 0.819037 0.789589 -0.154838
v 0.834431 0.754646 0.116654
v 0.834431 0.754646 -0.116654
v 0.717295 1.020526 -0.154837
v 0.711137 1.051882 -0.147831
v 0.701899 1.055469 0.116654
v 0.838018 0.763883 0.147831
v 0.730466 1.085338 -0.116654
v 0.711137 1.051882 -0.147831
v 0.736843 1.070864 -0.154837
v 1.138817 1.265242 0.116654
v 0.730466 1.085337 0.116654
v 0.736842 1.070863 0.154838
v 1.176549 1.256926 0.147831
v 1.145193 1.250768 0.154838
v 1.138817 1.265242 -0.116654
v 0.711136 1.051882 0.147831
v 0.701899 1.055469 0.116654
v 0.701900 1.055469 -0.116654
v 1.145194 1.250769 -0.154837
v 1.176550 1.256926 -0.147831
v 1.180136 1.266163 0.116654
v 1.210005 1.237597 0.116654
v 1.311748 1.006660 -0.116654
v 1.311748 1.006660 0.116654
v 1.176549 1.256926 0.147831
v 1.180136 1.266163 0.116654
v 1.180137 1.266163 -0.116654
v 1.210005 1.237597 -0.116654
v 1.195531 1.231220 -0.154837
v 1.297274 1.000283 -0.154838
v 1.303432 0.968928 -0.147831
v 1.303431 0.968927 0.147831
v 1.297274 1.000283 0.154838
v 1.195531 1.231220 0.154838
v 1.312669 0.965340 -0.116654
v 1.312668 0.965340 0.116654
v 1.176550 1.256926 -0.147831
v -0.142098 0.665878 -0.086284
v -0.161427 0.632423 -0.117460
v -0.135722 0.651404 -0.124467
v 0.786564 1.075013 0.086284
v -0.142098 0.665878 0.086284
v 0.786565 1.075013 -0.086283
v -0.135722 0.651404 0.124467
v -0.161427 0.632422 0.117461
v -0.170665 0.636010 0.086284
v -0.170664 0.636010 -0.086284
v 0.792941 1.060540 -0.124467
v 0.645314 0.023022 -0.645314
v 0.645314 0.280636 -0.645314
v 0.607130 0.280636 -0.661130
v 0.607130 0.023022 -0.661130
v 0.638307 -0.008155 -0.638307
v -0.607130 0.023022 -0.661130
v -0.607130 -0.015162 -0.645314
v 0.607130 -0.015162 -0.645314
v 0.645314 -0.015162 -0.607130
v -0.638307 -0.008155 -0.638307
v -0.645314 0.023022 -0.645314
v -0.645314 0.280636 -0.645314
v 0.607130 -0.015162 0.645314
v -0.607130 -0.015162 0.645314
v 0.645314 0.023022 0.645314
v 0.645314 0.280636 0.645314
v 0.607130 -0.015162 0.645314
v -0.645314 0.280636 0.645314
v -0.607130 -0.015162 0.645314
v 0.638307 0.311813 -0.638307
v 0.607130 0.318820 -0.645314
v -0.607130 0.280636 -0.661130
v -0.607130 0.318820 -0.645314
v 0.645314 0.318820 -0.607130
v -0.638307 0.311813 -0.638307
v -0.645314 0.318820 -0.607130
v -0.607130 0.318820 0.645314
v 0.607130 0.318820 0.645314
v -0.451737 0.531866 -0.222331
v -0.413553 0.563498 -0.206514
v -0.413553 0.547682 -0.168331
v -0.447645 0.547682 -0.222331
v -0.451737 0.547682 -0.238147
v -0.413553 0.601682 -0.222331
v -0.451737 0.531866 -0.222331
v -0.447645 0.547682 -0.222331
v -0.451737 0.805359 -0.238147
v -0.413553 0.563498 0.206515
v -0.451737 0.531866 0.222331
v -0.413553 0.547682 0.168331
v -0.451737 0.547682 0.238147
v -0.447645 0.547682 0.222331
v -0.413553 0.601682 0.222331
v -0.447645 0.547682 0.222331
v 0.451737 0.531866 0.222331
v 0.413553 0.563498 0.206515
v 0.413553 0.547682 0.168331
v 0.447645 0.547682 0.222331
v 0.451737 0.547682 0.238147
v 0.413553 0.601682 0.222331
v 0.447645 0.547682 0.222331
v 0.451737 0.531866 -0.222331
v 0.413553 0.563498 -0.206514
v 0.447645 0.547682 -0.222331
v 0.451737 0.547682 -0.238147
v 0.413553 0.547682 -0.168331
v 0.413553 0.601682 -0.222331
v 0.447645 0.547682 -0.222331
v 0.451737 0.805359 -0.238147
v 0.413553 0.843543 -0.451736
v 0.451737 0.547682 -0.451736
v -0.451737 0.843543 0.276331
v -0.413553 0.843543 0.238147
v -0.451737 0.547682 0.238147
v -0.451737 0.805359 0.451737
v -0.413553 0.843543 0.451737
v 0.413553 0.843543 0.451737
v 0.451737 0.843543 0.276331
v 0.451737 0.547682 0.451737
v 0.451737 0.843543 0.276331
v 0.451737 0.547682 -0.238147
v 0.413553 0.843543 -0.238147
v -0.413553 0.843543 -0.238147
v -0.451737 0.547682 -0.238147
v 0.413553 0.843543 0.238147
v 0.451737 0.547682 0.238147
v -0.063988 0.393874 -0.086284
v 0.899617 0.818404 0.124467
v -0.063988 0.393874 0.086284
v -0.079383 0.428817 -0.124467
v -0.170664 0.636010 -0.086284
v 0.792941 1.060539 0.124468
v 0.792941 1.060539 0.124468
v -0.161427 0.632423 -0.117460
v -0.155270 0.601067 -0.124467
v 0.819037 0.789589 -0.154838
v 0.701900 1.055469 -0.116654
v 0.711137 1.051882 -0.147831
v 0.717295 1.020526 -0.154837
v 0.736842 1.070863 0.154838
v 1.297274 1.000283 0.154838
v 1.180137 1.266163 -0.116654
v 1.195531 1.231220 0.154838
v 0.451737 0.312262 0.451737
v 0.451737 0.312262 0.451737
v -0.451737 0.531866 0.222331
v -0.451737 0.531866 -0.222331
v 0.451737 0.531866 -0.222331
v 0.413553 0.563498 0.206515
v -0.413553 0.563498 0.206515
v 0.413553 0.563498 -0.206514
v -0.413553 0.563498 -0.206514
vn -0.9673 0.1794 -0.1794
vn -0.9673 -0.1794 0.1794
vn -0.9673 0.1794 0.1794
vn -0.9194 0.3600 0.1585
vn -0.9194 0.3600 -0.1585
vn -0.8881 0.3251 -0.3251
vn -0.9673 -0.1794 -0.1794
vn -0.9194 -0.3600 -0.1585
vn -0.8881 -0.3251 0.3251
vn -0.9194 -0.1585 0.3600
vn -0.9194 0.1585 0.3600
vn -0.8881 0.3251 0.3251
vn -0.8881 -0.3251 -0.3251
vn 0.9808 -0.0000 -0.1951
vn 0.9976 -0.0495 0.0495
vn 0.9239 -0.0000 -0.3827
vn 1.0000 -0.0000 -0.0000
vn 0.9976 -0.0494 -0.0494
vn 0.9673 -0.1794 0.1794
vn 0.9194 -0.3600 -0.1585
vn 0.9673 -0.1794 -0.1794
vn 0.9194 -0.1585 0.3600
vn 0.8881 -0.3251 0.3251
vn 0.9673 0.1794 -0.1794
vn 0.9194 0.1585 -0.3600
vn 0.8881 -0.3251 -0.3251
vn 0.8881 0.3251 -0.3251
vn 0.9194 0.3600 -0.1585
vn 0.9673 0.1794 0.1794
vn 0.9194 0.3600 0.1585
vn 0.8881 0.3251 0.3251
vn 0.9194 0.1585 0.3600
vn -0.1794 0.1794 -0.9673
vn -0.3600 0.1585 -0.9194
vn -0.3251 0.3251 -0.8881
vn 0.1794 0.1794 -0.9673
vn 0.1794 -0.1794 -0.9673
vn -0.1794 -0.1794 -0.9673
vn -0.3600 -0.1585 -0.9194
vn 0.3251 0.3251 -0.8881
vn 0.3600 0.1585 -0.9194
vn 0.3600 -0.1585 -0.9194
vn 0.3251 -0.3251 -0.8881
vn 0.1585 -0.3600 -0.9194
vn -0.1585 -0.3600 -0.9194
vn -0.3251 -0.3251 -0.8881
vn -0.1794 -0.9673 -0.1794
vn -0.3600 -0.9194 -0.1585
vn -0.3251 -0.8881 -0.3251
vn -0.1794 -0.9673 0.1794
vn -0.3600 -0.9194 0.1585
vn 0.1794 -0.9673 -0.1794
vn 0.1794 -0.9673 0.1794
vn 0.3251 -0.8881 -0.3251
vn 0.3600 -0.9194 -0.1585
vn -0.1585 -0.9194 0.3600
vn -0.3251 -0.8881 0.3251
vn 0.1585 -0.9194 0.3600
vn 0.3600 -0.9194 0.1585
vn 0.3251 -0.8881 0.3251
vn -0.1794 0.9673 -0.1794
vn -0.1794 0.9673 0.1794
vn 0.1794 0.9673 -0.1794
vn -0.3251 0.8881 -0.3251
vn -0.3600 0.9194 -0.1585
vn -0.3251 0.8881 0.3251
vn -0.1585 0.9194 0.3600
vn 0.1794 0.9673 0.1794
vn 0.3600 0.9194 -0.1585
vn 0.3251 0.8881 -0.3251
vn 0.3600 0.9194 0.1585
vn 0.1585 0.9194 0.3600
vn 0.3251 0.8881 0.3251
vn -1.0000 -0.0000 -0.0000
vn -0.9976 -0.0493 -0.0493
vn -0.9976 -0.0495 0.0495
vn -0.9808 -0.0000 0.1951
vn -0.9535 -0.2892 0.0849
vn -0.9535 -0.2892 -0.0848
vn -0.9808 -0.0000 -0.1951
vn -0.1951 -0.0000 0.9808
vn 0.1951 -0.0000 0.9808
vn -0.3600 -0.1585 0.9194
vn -0.1794 -0.1794 0.9673
vn -0.3827 -0.0000 0.9239
vn 0.1794 -0.1794 0.9673
vn 0.3600 -0.1585 0.9194
vn 0.3827 -0.0000 0.9239
vn -0.9239 -0.0000 0.3827
vn -0.9194 -0.1585 -0.3600
vn 0.9808 -0.0000 0.1951
vn 0.9535 -0.2892 0.0849
vn 0.9239 -0.0000 0.3827
vn -0.1951 -0.0000 -0.9808
vn 0.1951 -0.0000 -0.9808
vn -0.3827 -0.0000 -0.9239
vn 0.3827 -0.0000 -0.9239
vn -0.3251 -0.3251 0.8881
vn 0.1751 -0.1105 0.9783
vn -0.1751 -0.1105 0.9783
vn 0.3251 -0.3251 0.8881
vn -0.0000 -0.3827 0.9239
vn 0.1585 -0.3600 0.9194
vn -0.9535 -0.0848 -0.2892
vn -0.9194 -0.3600 0.1585
vn -0.1751 -0.1105 -0.9783
vn 0.1751 -0.1105 -0.9783
vn -0.3954 0.8975 0.1951
vn -0.2258 0.9575 0.1794
vn -0.3954 0.8975 -0.1951
vn -0.2257 0.9053 0.3600
vn -0.0606 0.9438 0.3251
vn -0.3725 0.8455 0.3827
vn -0.2258 0.9575 -0.1794
vn -0.0413 0.9865 0.1585
vn -0.3725 0.8455 -0.3827
vn -0.0606 0.9438 -0.3251
vn -0.2257 0.9053 -0.3600
vn 0.1751 -0.9783 -0.1105
vn -0.1751 -0.9783 0.1105
vn 0.1751 -0.9783 0.1105
vn -0.1751 -0.9783 -0.1105
vn -0.3827 -0.9239 -0.0000
vn -0.0000 -0.9239 -0.3827
vn 0.9535 -0.0848 -0.2892
vn 0.9194 -0.3600 0.1585
vn 0.9535 -0.0848 0.2892
vn -0.9535 -0.0848 0.2892
vn 0.0918 0.2365 0.9673
vn -0.1543 0.3502 0.9239
vn -0.0787 0.1785 0.9808
vn 0.2365 -0.0918 0.9673
vn 0.1664 0.4285 0.8881
vn -0.0001 0.3933 0.9194
vn 0.0787 -0.1785 0.9808
vn 0.1543 -0.3502 0.9239
vn 0.2901 -0.2655 0.9194
vn -0.5541 0.8129 -0.1794
vn -0.6555 0.6816 -0.3251
vn -0.7001 0.6962 -0.1585
vn -0.5541 0.8129 0.1794
vn -0.5157 0.7775 0.3600
vn -0.5157 0.7775 -0.3600
vn -0.0412 0.9865 -0.1585
vn -0.6555 0.6816 0.3251
vn -0.7001 0.6962 0.1585
vn -0.0787 0.1785 -0.9808
vn 0.2365 -0.0918 -0.9673
vn 0.0787 -0.1785 -0.9808
vn -0.0001 0.3933 -0.9194
vn 0.0918 0.2365 -0.9673
vn 0.2655 0.2902 -0.9194
vn 0.3933 0.0001 -0.9194
vn 0.4285 -0.1664 -0.8881
vn 0.2902 -0.2655 -0.9194
vn 0.1664 0.4285 -0.8881
vn 0.9575 0.2258 -0.1794
vn 0.8129 0.5541 -0.1794
vn 0.8129 0.5541 0.1794
vn 0.9575 0.2258 0.1794
vn 0.7775 0.5157 -0.3600
vn 0.9438 0.0606 -0.3251
vn 0.9053 0.2257 -0.3600
vn 0.6816 0.6555 -0.3251
vn 0.6962 0.7001 -0.1585
vn 0.6816 0.6555 0.3251
vn 0.7775 0.5157 0.3600
vn 0.9865 0.0413 -0.1585
vn 0.9053 0.2257 0.3600
vn 0.9438 0.0606 0.3251
vn -0.2902 0.2655 0.9194
vn -0.2365 0.0918 0.9673
vn -0.4285 0.1664 0.8881
vn -0.3933 -0.0001 0.9194
vn 0.0001 -0.3933 0.9194
vn -0.0918 -0.2365 0.9673
vn -0.2655 -0.2901 0.9194
vn -0.1664 -0.4285 0.8881
vn -0.2365 0.0918 -0.9673
vn -0.0918 -0.2365 -0.9673
vn -0.4285 0.1664 -0.8881
vn -0.2901 0.2655 -0.9194
vn 0.0001 -0.3933 -0.9194
vn -0.1664 -0.4285 -0.8881
vn 0.2655 0.2901 -0.9194
vn 0.6962 0.7001 0.1585
vn 0.5541 -0.8129 0.1794
vn 0.6555 -0.6816 0.3251
vn 0.5157 -0.7775 0.3600
vn 0.2258 -0.9575 -0.1794
vn 0.5541 -0.8129 -0.1794
vn 0.5157 -0.7775 -0.3600
vn 0.0606 -0.9438 -0.3251
vn 0.2257 -0.9053 -0.3600
vn 0.2258 -0.9575 0.1794
vn 0.6555 -0.6816 -0.3251
vn 0.7001 -0.6962 -0.1585
vn 0.7001 -0.6962 0.1585
vn 0.2257 -0.9053 0.3600
vn 0.0606 -0.9438 0.3251
vn 0.0413 -0.9865 -0.1585
vn -0.8129 -0.5541 -0.1794
vn -0.9575 -0.2258 0.1794
vn -0.9575 -0.2258 -0.1794
vn -0.6816 -0.6555 -0.3251
vn -0.6962 -0.7001 -0.1585
vn -0.6962 -0.7001 0.1585
vn -0.8129 -0.5541 0.1794
vn -0.7775 -0.5157 0.3600
vn -0.9053 -0.2257 0.3600
vn -0.9438 -0.0606 0.3251
vn -0.9438 -0.0606 -0.3251
vn -0.9053 -0.2256 -0.3600
vn -0.7775 -0.5157 -0.3600
vn -0.9865 -0.0413 0.1585
vn -0.9865 -0.0412 -0.1585
vn -0.6816 -0.6555 0.3251
vn 0.3954 -0.8975 -0.1951
vn 0.3954 -0.8975 0.1951
vn 0.3725 -0.8455 0.3827
vn -0.3600 0.1585 0.9194
vn -0.1794 0.1794 0.9673
vn -0.3251 0.3251 0.8881
vn 0.1794 0.1794 0.9673
vn 0.1585 0.3600 0.9194
vn -0.1585 0.3600 0.9194
vn -0.3600 0.9194 0.1585
vn 0.3251 0.3251 0.8881
vn 0.3600 0.1585 0.9194
vn -0.1585 0.3600 -0.9194
vn 0.1585 0.3600 -0.9194
vn -0.9194 0.1585 -0.3600
vn -0.1585 0.9194 -0.3600
vn 0.9194 -0.1585 -0.3600
vn 0.1585 0.9194 -0.3600
vn -0.1585 -0.3600 0.9194
vn 0.1585 -0.9194 -0.3600
vn -0.1585 -0.9194 -0.3600
vn 0.6752 -0.6019 -0.4264
vn 0.6805 -0.5181 -0.5181
vn 0.6753 -0.6020 -0.4263
vn 0.6805 -0.5181 -0.5182
vn 0.6752 -0.4264 -0.6019
vn 0.6752 -0.4263 -0.6020
vn 0.9535 -0.2892 -0.0849
vn 0.9677 -0.1784 -0.1784
vn 0.6805 -0.5181 0.5181
vn 0.6752 -0.6019 0.4264
vn 0.6752 -0.6020 0.4263
vn 0.6752 -0.4264 0.6019
vn 0.6805 -0.5182 0.5181
vn 0.6752 -0.4263 0.6020
vn 0.9677 -0.1784 0.1784
vn -0.6752 -0.6019 0.4264
vn -0.6805 -0.5181 0.5181
vn -0.6752 -0.6020 0.4263
vn -0.6805 -0.5181 0.5182
vn -0.6752 -0.4264 0.6019
vn -0.6752 -0.4263 0.6020
vn -0.9677 -0.1784 0.1784
vn -0.6752 -0.6019 -0.4264
vn -0.6805 -0.5181 -0.5181
vn -0.6805 -0.5182 -0.5181
vn -0.6752 -0.4264 -0.6019
vn -0.6752 -0.6020 -0.4263
vn -0.6752 -0.4263 -0.6020
vn -0.9677 -0.1784 -0.1784
vn -0.9239 -0.0000 -0.3827
vn -0.1543 0.3502 -0.9239
vn 0.2655 0.2901 0.9194
vn 0.9865 0.0412 0.1585
vn 0.3725 -0.8455 -0.3827
vn 0.1543 -0.3502 -0.9239
vn 0.4285 -0.1664 0.8881
vn 0.3933 0.0001 0.9194
vn 0.2901 -0.2655 -0.9194
vn -0.3933 -0.0001 -0.9194
vn 0.0412 -0.9865 0.1585
vn -0.2655 -0.2902 -0.9194
vn 0.3827 -0.9239 -0.0000
vn -0.0000 -0.9239 0.3827
vn -0.0000 -0.3827 -0.9239
vt 0.019312 0.800653
vt 0.017359 0.829949
s 1
usemtl Atlas
f 1/1/1 2/1/2 3/1/3
f 1/1/1 3/1/3 4/1/4
f 1/1/1 5/1/5 6/1/6
f 2/1/2 1/1/1 7/1/7
f 2/1/2 7/1/7 8/1/8
f 2/1/2 9/1/9 10/1/10
f 3/1/3 2/1/2 10/1/10
f 3/1/3 10/1/10 11/1/11
f 3/1/3 11/1/11 12/1/12
f 7/1/7 13/1/13 8/1/8
f 14/2/14 15/2/14 16/2/15
f 15/2/14 17/2/16 18/2/16
f 15/2/14 19/2/17 16/2/15
f 16/2/15 20/2/17 21/2/18
f 16/2/15 22/2/19 14/2/14
f 23/1/19 24/1/20 25/1/21
f 23/1/19 26/1/22 27/1/23
f 23/1/19 25/1/21 28/1/24
f 25/1/21 29/1/25 28/1/24
f 25/1/21 24/1/20 30/1/26
f 28/1/24 31/1/27 32/1/28
f 28/1/24 33/1/29 23/1/19
f 28/1/24 34/1/30 33/1/29
f 33/1/29 26/1/22 23/1/19
f 33/1/29 35/1/31 36/1/32
f 37/1/33 38/1/34 39/1/35
f 37/1/33 40/1/36 41/1/37
f 37/1/33 42/1/38 43/1/39
f 37/1/33 41/1/37 42/1/38
f 40/1/36 44/1/40 45/1/41
f 41/1/37 45/1/41 46/1/42
f 41/1/37 47/1/43 48/1/44
f 42/1/38 49/1/45 50/1/46
f 42/1/38 48/1/44 49/1/45
f 42/1/38 41/1/37 48/1/44
f 51/1/47 52/1/48 53/1/49
f 51/1/47 54/1/50 55/1/51
f 51/1/47 56/1/52 54/1/50
f 56/1/52 57/1/53 54/1/50
f 56/1/52 58/1/54 59/1/55
f 54/1/50 60/1/56 61/1/57
f 54/1/50 62/1/58 60/1/56
f 54/1/50 57/1/53 62/1/58
f 57/1/53 59/1/55 63/1/59
f 57/1/53 64/1/60 62/1/58
f 65/1/61 66/1/62 67/1/63
f 65/1/61 68/1/64 69/1/65
f 66/1/62 70/1/66 71/1/67
f 66/1/62 65/1/61 69/1/65
f 67/1/63 66/1/62 72/1/68
f 67/1/63 73/1/69 74/1/70
f 67/1/63 75/1/71 73/1/69
f 72/1/68 76/1/72 77/1/73
f 72/1/68 66/1/62 71/1/67
f 72/1/68 71/1/67 76/1/72
f 78/2/74 79/2/75 80/2/74
f 79/2/75 78/2/74 81/2/76
f 79/2/75 82/2/77 80/2/74
f 79/2/75 81/2/76 83/2/78
f 79/2/75 83/2/78 84/2/79
f 81/2/76 85/2/80 86/2/80
f 87/2/81 88/2/82 89/2/82
f 87/2/81 90/2/83 91/2/84
f 87/2/81 92/2/81 93/2/85
f 87/2/81 89/2/82 92/2/81
f 88/2/82 94/2/86 95/2/87
f 89/2/82 96/2/88 97/2/88
f 82/2/77 79/2/75 98/2/77
f 82/2/77 99/2/89 100/2/89
f 82/2/77 98/2/77 99/2/89
f 98/2/77 101/2/7 102/2/2
f 98/2/77 102/2/2 103/2/10
f 98/2/77 103/2/10 99/2/89
f 85/2/80 81/2/76 78/2/74
f 86/2/80 104/2/90 105/2/7
f 86/2/80 106/2/2 81/2/76
f 107/2/91 21/2/18 20/2/17
f 21/2/18 108/2/92 16/2/15
f 21/2/18 107/2/91 109/2/91
f 20/2/17 16/2/15 19/2/17
f 109/2/91 107/2/91 110/2/93
f 109/2/91 111/2/22 112/2/19
f 109/2/91 113/2/21 21/2/18
f 109/2/91 110/2/93 114/2/93
f 115/2/94 116/2/95 117/2/95
f 115/2/94 117/2/95 118/2/94
f 115/2/94 118/2/94 119/2/96
f 117/2/95 120/2/42 121/2/37
f 117/2/95 122/2/97 123/2/97
f 118/2/94 124/2/38 125/2/39
f 118/2/94 121/2/37 124/2/38
f 118/2/94 117/2/95 121/2/37
f 126/2/84 127/2/83 128/2/98
f 126/2/84 129/2/86 130/2/99
f 126/2/84 130/2/99 131/2/100
f 129/2/86 132/2/101 133/2/87
f 130/2/99 129/2/86 133/2/87
f 131/2/100 130/2/99 134/2/102
f 131/2/100 134/2/102 135/2/102
f 131/2/100 127/2/83 126/2/84
f 91/2/84 90/2/83 136/2/98
f 91/2/84 88/2/82 87/2/81
f 91/2/84 94/2/86 88/2/82
f 91/2/84 137/2/103 94/2/86
f 94/2/86 138/2/101 95/2/87
f 139/2/53 140/2/50 141/2/52
f 139/2/53 142/2/60 143/2/58
f 140/2/50 144/2/56 145/2/57
f 140/2/50 143/2/58 144/2/56
f 140/2/50 139/2/53 143/2/58
f 141/2/52 146/2/54 147/2/55
f 141/2/52 148/2/59 139/2/53
f 149/2/47 150/2/48 151/2/49
f 149/2/47 140/2/50 152/2/51
f 149/2/47 141/2/52 140/2/50
f 101/2/7 79/2/75 153/2/104
f 101/2/7 154/2/13 155/2/8
f 101/2/7 98/2/77 79/2/75
f 101/2/7 156/2/105 102/2/2
f 102/2/2 157/2/9 103/2/10
f 158/2/106 159/2/38 160/2/39
f 158/2/106 161/2/107 162/2/37
f 158/2/106 162/2/37 159/2/38
f 161/2/107 163/2/42 162/2/37
f 162/2/37 164/2/43 165/2/44
f 159/2/38 162/2/37 165/2/44
f 159/2/38 166/2/45 167/2/46
f 159/2/38 165/2/44 166/2/45
f 168/2/53 169/2/55 170/2/59
f 168/2/53 171/2/60 172/2/58
f 168/2/53 173/2/50 174/2/52
f 173/2/50 175/2/48 176/2/47
f 173/2/50 168/2/53 172/2/58
f 173/2/50 177/2/56 178/2/57
f 173/2/50 172/2/58 177/2/56
f 174/2/52 179/2/54 169/2/55
f 176/2/47 174/2/52 173/2/50
f 176/2/47 175/2/48 180/2/49
f 181/1/108 182/1/109 183/1/110
f 182/1/109 184/1/111 185/1/112
f 182/1/109 186/1/113 184/1/111
f 182/1/109 181/1/108 186/1/113
f 187/1/114 183/1/110 182/1/109
f 187/1/114 182/1/109 188/1/115
f 187/1/114 189/1/116 183/1/110
f 187/1/114 190/1/117 191/1/118
f 192/2/119 193/2/120 194/2/121
f 193/2/120 192/2/119 195/2/122
f 195/2/122 196/2/123 193/2/120
f 195/2/122 192/2/119 197/2/124
f 195/2/122 197/2/124 198/2/124
f 113/2/21 199/2/125 21/2/18
f 113/2/21 200/2/20 201/2/26
f 113/2/21 109/2/91 112/2/19
f 113/2/21 202/2/126 200/2/20
f 112/2/19 111/2/22 203/2/23
f 22/2/19 204/2/22 205/2/23
f 22/2/19 206/2/20 207/2/21
f 22/2/19 208/2/127 204/2/22
f 207/2/21 206/2/20 209/2/26
f 207/2/21 14/2/14 22/2/19
f 121/2/37 210/2/43 211/2/44
f 121/2/37 212/2/45 124/2/38
f 124/2/38 212/2/45 213/2/46
f 106/2/2 214/2/9 215/2/10
f 106/2/2 105/2/7 216/2/8
f 106/2/2 86/2/80 105/2/7
f 106/2/2 217/2/128 81/2/76
f 105/2/7 218/2/13 216/2/8
f 219/1/129 220/1/130 221/1/131
f 219/1/129 221/1/131 222/1/132
f 219/1/129 223/1/133 224/1/134
f 222/1/132 221/1/131 225/1/135
f 222/1/132 226/1/136 227/1/137
f 228/2/138 229/2/109 230/2/114
f 228/2/138 231/2/139 232/2/140
f 229/2/109 228/2/138 233/2/141
f 229/2/109 234/2/142 235/2/111
f 229/2/109 233/2/141 234/2/142
f 229/2/109 235/2/111 236/2/112
f 230/2/114 237/2/143 228/2/138
f 230/2/114 238/2/117 239/2/118
f 230/2/114 240/2/115 241/2/144
f 233/2/141 242/2/145 234/2/142
f 233/2/141 232/2/140 243/2/146
f 244/1/147 245/1/148 246/1/149
f 244/1/147 247/1/150 248/1/151
f 245/1/148 248/1/151 249/1/152
f 245/1/148 249/1/152 250/1/153
f 245/1/148 250/1/153 251/1/154
f 245/1/148 244/1/147 248/1/151
f 246/1/149 245/1/148 252/1/155
f 248/1/151 253/1/156 249/1/152
f 254/1/157 255/1/158 256/1/159
f 254/1/157 256/1/159 257/1/160
f 254/1/157 258/1/161 255/1/158
f 254/1/157 259/1/162 260/1/163
f 255/1/158 261/1/164 262/1/165
f 256/1/159 255/1/158 262/1/165
f 256/1/159 263/1/166 264/1/167
f 257/1/160 265/1/168 254/1/157
f 257/1/160 266/1/169 267/1/170
f 257/1/160 256/1/159 264/1/167
f 257/1/160 264/1/167 266/1/169
f 268/2/129 269/2/133 270/2/134
f 268/2/129 271/2/171 272/2/172
f 268/2/129 272/2/172 273/2/132
f 272/2/172 274/2/173 275/2/174
f 273/2/132 276/2/175 277/2/137
f 273/2/132 272/2/172 278/2/176
f 278/2/176 279/2/177 280/2/178
f 278/2/176 272/2/172 275/2/174
f 278/2/176 275/2/174 279/2/177
f 281/2/179 282/2/150 283/2/151
f 281/2/179 284/2/148 285/2/180
f 281/2/179 286/2/181 287/2/182
f 284/2/148 288/2/153 289/2/154
f 284/2/148 290/2/183 285/2/180
f 284/2/148 281/2/179 283/2/151
f 285/2/180 290/2/183 291/2/184
f 283/2/151 292/2/156 293/2/185
f 283/2/151 288/2/153 284/2/148
f 294/2/157 295/2/161 296/2/158
f 294/2/157 297/2/159 298/2/160
f 294/2/157 299/2/162 300/2/163
f 297/2/159 294/2/157 296/2/158
f 297/2/159 301/2/166 302/2/167
f 297/2/159 303/2/165 304/2/186
f 298/2/160 302/2/167 305/2/169
f 298/2/160 305/2/169 306/2/170
f 298/2/160 297/2/159 302/2/167
f 298/2/160 307/2/168 294/2/157
f 296/2/158 308/2/164 303/2/165
f 309/2/187 310/2/188 311/2/189
f 309/2/187 312/2/190 313/2/191
f 312/2/190 314/2/192 313/2/191
f 312/2/190 315/2/193 316/2/194
f 312/2/190 309/2/187 317/2/195
f 313/2/191 318/2/196 319/2/197
f 313/2/191 320/2/198 309/2/187
f 317/2/195 311/2/189 321/2/199
f 317/2/195 321/2/199 322/2/200
f 317/2/195 323/2/201 312/2/190
f 317/2/195 309/2/187 311/2/189
f 324/2/202 325/2/203 326/2/204
f 324/2/202 327/2/205 328/2/206
f 324/2/202 329/2/207 330/2/208
f 325/2/203 331/2/209 332/2/210
f 325/2/203 330/2/208 331/2/209
f 325/2/203 332/2/210 333/2/211
f 325/2/203 324/2/202 330/2/208
f 326/2/204 334/2/212 335/2/213
f 326/2/204 336/2/214 324/2/202
f 326/2/204 337/2/215 338/2/216
f 330/2/208 339/2/217 331/2/209
f 340/1/187 341/1/188 342/1/189
f 340/1/187 343/1/218 344/1/191
f 343/1/218 340/1/187 345/1/219
f 343/1/218 346/1/192 344/1/191
f 344/1/191 347/1/196 348/1/197
f 344/1/191 349/1/198 340/1/187
f 345/1/219 342/1/189 350/1/220
f 345/1/219 340/1/187 342/1/189
f 351/1/221 352/1/83 353/1/84
f 351/1/221 354/1/222 355/1/223
f 354/1/222 356/1/224 357/1/225
f 354/1/222 358/1/226 355/1/223
f 354/1/222 357/1/225 358/1/226
f 70/1/66 66/1/62 359/1/227
f 4/1/4 3/1/3 12/1/12
f 4/1/4 5/1/5 1/1/1
f 360/1/228 356/1/224 361/1/229
f 356/1/224 362/1/87 361/1/229
f 356/1/224 360/1/228 357/1/225
f 34/1/30 35/1/31 33/1/29
f 34/1/30 28/1/24 32/1/28
f 75/1/71 72/1/68 77/1/73
f 75/1/71 67/1/63 72/1/68
f 39/1/35 363/1/230 37/1/33
f 363/1/230 40/1/36 37/1/33
f 363/1/230 364/1/231 40/1/36
f 6/1/6 365/1/232 1/1/1
f 365/1/232 366/1/90 7/1/7
f 365/1/232 7/1/7 1/1/1
f 68/1/64 65/1/61 367/1/233
f 69/1/65 359/1/227 66/1/62
f 31/1/27 28/1/24 29/1/25
f 29/1/25 25/1/21 368/1/234
f 44/1/40 40/1/36 364/1/231
f 45/1/41 41/1/37 40/1/36
f 74/1/70 369/1/235 67/1/63
f 369/1/235 65/1/61 67/1/63
f 369/1/235 367/1/233 65/1/61
f 370/1/98 371/1/236 353/1/84
f 371/1/236 372/1/86 353/1/84
f 371/1/236 373/1/103 372/1/86
f 353/1/84 356/1/224 354/1/222
f 353/1/84 372/1/86 356/1/224
f 353/1/84 354/1/222 351/1/221
f 353/1/84 352/1/83 370/1/98
f 9/1/9 2/1/2 374/1/105
f 55/1/51 52/1/48 51/1/47
f 55/1/51 54/1/50 61/1/57
f 375/1/101 372/1/86 373/1/103
f 372/1/86 375/1/101 362/1/87
f 362/1/87 356/1/224 372/1/86
f 64/1/60 57/1/53 63/1/59
f 376/1/126 23/1/19 27/1/23
f 26/1/22 33/1/29 36/1/32
f 30/1/26 368/1/234 25/1/21
f 24/1/20 23/1/19 376/1/126
f 58/1/54 56/1/52 377/1/237
f 59/1/55 57/1/53 56/1/52
f 46/1/42 47/1/43 41/1/37
f 43/1/39 38/1/34 37/1/33
f 43/1/39 42/1/38 50/1/46
f 53/1/49 378/1/238 51/1/47
f 378/1/238 377/1/237 56/1/52
f 378/1/238 56/1/52 51/1/47
f 13/1/13 7/1/7 366/1/90
f 8/1/8 374/1/105 2/1/2
f 379/2/239 380/2/240 381/2/241
f 380/2/240 379/2/239 382/2/242
f 380/2/240 383/2/243 384/2/244
f 385/2/245 199/2/125 386/2/246
f 199/2/125 113/2/21 387/2/234
f 199/2/125 385/2/245 21/2/18
f 383/2/243 380/2/240 382/2/242
f 388/2/247 389/2/248 390/2/249
f 388/2/247 391/2/250 392/2/251
f 389/2/248 388/2/247 392/2/251
f 391/2/250 388/2/247 393/2/252
f 108/2/92 21/2/18 385/2/245
f 108/2/92 208/2/127 16/2/15
f 208/2/127 108/2/92 394/2/253
f 208/2/127 22/2/19 16/2/15
f 395/2/254 396/2/255 397/2/256
f 396/2/255 395/2/254 398/2/257
f 396/2/255 399/2/258 400/2/259
f 83/2/78 217/2/128 401/2/260
f 217/2/128 83/2/78 81/2/76
f 217/2/128 106/2/2 215/2/10
f 399/2/258 396/2/255 398/2/257
f 402/2/261 403/2/262 404/2/263
f 403/2/262 405/2/264 404/2/263
f 403/2/262 402/2/261 406/2/265
f 405/2/264 403/2/262 407/2/266
f 153/2/104 84/2/79 408/2/267
f 153/2/104 409/2/90 101/2/7
f 84/2/79 153/2/104 79/2/75
f 136/2/98 410/2/236 91/2/84
f 90/2/83 87/2/81 411/2/85
f 156/2/105 101/2/7 155/2/8
f 156/2/105 157/2/9 102/2/2
f 152/2/51 150/2/48 149/2/47
f 152/2/51 140/2/50 145/2/57
f 138/2/101 94/2/86 137/2/103
f 137/2/103 91/2/84 410/2/236
f 95/2/87 96/2/88 88/2/82
f 148/2/59 142/2/60 139/2/53
f 148/2/59 141/2/52 147/2/55
f 202/2/126 112/2/19 203/2/23
f 202/2/126 113/2/21 112/2/19
f 111/2/22 109/2/91 114/2/93
f 412/2/126 22/2/19 205/2/23
f 132/2/101 129/2/86 413/2/103
f 133/2/87 414/2/88 130/2/99
f 170/2/59 171/2/60 168/2/53
f 209/2/26 415/2/234 207/2/21
f 415/2/234 17/2/16 14/2/14
f 415/2/234 14/2/14 207/2/21
f 206/2/20 22/2/19 412/2/126
f 179/2/54 174/2/52 416/2/237
f 169/2/55 168/2/53 174/2/52
f 120/2/42 117/2/95 123/2/97
f 120/2/42 210/2/43 121/2/37
f 125/2/39 119/2/96 118/2/94
f 125/2/39 124/2/38 213/2/46
f 212/2/45 121/2/37 211/2/44
f 180/2/49 417/2/238 176/2/47
f 417/2/238 416/2/237 174/2/52
f 417/2/238 174/2/52 176/2/47
f 175/2/48 173/2/50 418/2/51
f 218/2/13 105/2/7 104/2/90
f 104/2/90 86/2/80 419/2/268
f 216/2/8 420/2/105 106/2/2
f 154/2/13 101/2/7 409/2/90
f 160/2/39 159/2/38 167/2/46
f 160/2/39 421/2/96 158/2/106
f 151/2/49 422/2/238 149/2/47
f 422/2/238 423/2/237 141/2/52
f 422/2/238 141/2/52 149/2/47
f 201/2/26 387/2/234 113/2/21
f 146/2/54 141/2/52 423/2/237
f 163/2/42 164/2/43 162/2/37
f 163/2/42 161/2/107 424/2/97
f 420/2/105 214/2/9 106/2/2
f 418/2/51 173/2/50 178/2/57
f 128/2/98 425/2/236 126/2/84
f 425/2/236 413/2/103 129/2/86
f 425/2/236 129/2/86 126/2/84
f 127/2/83 131/2/100 426/2/85
f 261/1/164 255/1/158 258/1/161
f 258/1/161 254/1/157 260/1/163
f 262/1/165 427/1/186 256/1/159
f 253/1/156 248/1/151 247/1/150
f 247/1/150 244/1/147 428/1/269
f 190/1/117 187/1/114 429/1/144
f 427/1/186 263/1/166 256/1/159
f 188/1/115 182/1/109 185/1/112
f 188/1/115 429/1/144 187/1/114
f 223/1/133 219/1/129 430/1/270
f 259/1/162 254/1/157 265/1/168
f 265/1/168 257/1/160 431/1/271
f 347/1/196 344/1/191 346/1/192
f 346/1/192 343/1/218 432/1/272
f 252/1/155 245/1/148 251/1/154
f 252/1/155 433/1/273 246/1/149
f 431/1/271 257/1/160 267/1/170
f 434/1/274 435/1/275 222/1/132
f 434/1/274 222/1/132 227/1/137
f 435/1/275 219/1/129 222/1/132
f 435/1/275 430/1/270 219/1/129
f 349/1/198 344/1/191 348/1/197
f 349/1/198 341/1/188 340/1/187
f 240/2/115 230/2/114 229/2/109
f 240/2/115 229/2/109 236/2/112
f 269/2/133 268/2/129 436/2/270
f 304/2/186 301/2/166 297/2/159
f 238/2/117 230/2/114 241/2/144
f 308/2/164 296/2/158 295/2/161
f 295/2/161 294/2/157 300/2/163
f 303/2/165 297/2/159 296/2/158
f 292/2/156 283/2/151 282/2/150
f 282/2/150 281/2/179 287/2/182
f 320/2/198 310/2/188 309/2/187
f 320/2/198 313/2/191 319/2/197
f 437/2/271 298/2/160 306/2/170
f 438/2/274 439/2/275 273/2/132
f 438/2/274 273/2/132 277/2/137
f 439/2/275 268/2/129 273/2/132
f 439/2/275 436/2/270 268/2/129
f 318/2/196 313/2/191 314/2/192
f 314/2/192 312/2/190 316/2/194
f 440/2/276 284/2/148 289/2/154
f 288/2/153 283/2/151 293/2/185
f 299/2/162 294/2/157 307/2/168
f 307/2/168 298/2/160 437/2/271
f 243/2/146 242/2/145 233/2/141
f 337/2/215 326/2/204 325/2/203
f 337/2/215 325/2/203 333/2/211
f 271/2/171 268/2/129 270/2/134
f 271/2/171 274/2/173 272/2/172
f 231/2/139 228/2/138 237/2/143
f 237/2/143 230/2/114 239/2/118
f 232/2/140 233/2/141 228/2/138
f 286/2/181 281/2/179 441/2/277
f 334/2/212 326/2/204 338/2/216
f 442/2/278 317/2/195 322/2/200
f 276/2/175 278/2/176 280/2/178
f 276/2/175 273/2/132 278/2/176
f 329/2/207 339/2/217 330/2/208
f 329/2/207 324/2/202 328/2/206
f 315/2/193 312/2/190 323/2/201
f 323/2/201 317/2/195 442/2/278
f 327/2/205 324/2/202 336/2/214
f 336/2/214 326/2/204 335/2/213
f 291/2/184 443/2/279 285/2/180
f 443/2/279 441/2/277 281/2/179
f 443/2/279 281/2/179 285/2/180
f 290/2/183 284/2/148 440/2/276
f 119/2/96 444/2/96 115/2/94
f 445/2/268 419/2/268 86/2/80
f 445/2/268 86/2/80 85/2/80
f 93/2/85 411/2/85 87/2/81
f 96/2/88 89/2/82 88/2/82
f 122/2/97 117/2/95 116/2/95
f 17/2/16 15/2/14 14/2/14
f 446/2/280 447/2/280 192/2/119
f 446/2/280 192/2/119 194/2/121
f 196/2/123 195/2/122 448/2/123
f 449/2/281 194/2/121 193/2/120
f 449/2/281 450/2/281 194/2/121
f 451/2/282 452/2/282 161/2/107
f 451/2/282 161/2/107 158/2/106
f 189/1/116 187/1/114 191/1/118
f 220/1/130 219/1/129 224/1/134
f 226/1/136 222/1/132 225/1/135
